<svg width="41.888mm" height="20.348mm" version="1.1" viewBox="0 0 41.888 20.348" xmlns="http://www.w3.org/2000/svg">
 <defs>
  <marker id="ConcaveTriangle-16-42-5-1-1-7-6-6-2-1-6-9-3-7-3-7-8-93-94-8-40-0" overflow="visible" markerHeight="0.60000002" markerWidth="0.60000002" orient="auto-start-reverse" preserveAspectRatio="xMidYMid" viewBox="0 0 1 1">
   <path transform="scale(.7)" d="m-2-4 11 4-11 4c2-2.33 2-5.66 0-8z" fill="context-stroke" fill-rule="evenodd"/>
  </marker>
  <marker id="ConcaveTriangle-16-42-5-1-1-7-6-6-2-1-6-9-3-7-3-7-8-93-94-8-4-7-4" overflow="visible" markerHeight="0.60000002" markerWidth="0.60000002" orient="auto-start-reverse" preserveAspectRatio="xMidYMid" viewBox="0 0 1 1">
   <path transform="scale(.7)" d="m-2-4 11 4-11 4c2-2.33 2-5.66 0-8z" fill="context-stroke" fill-rule="evenodd"/>
  </marker>
  <marker id="ConcaveTriangle-16-42-5-1-1-7-6-6-2-1-6-9-3-7-3-7-8-93-94-8-40-0-2-1-0-5-2-9" overflow="visible" markerHeight="0.60000002" markerWidth="0.60000002" orient="auto-start-reverse" preserveAspectRatio="xMidYMid" viewBox="0 0 1 1">
   <path transform="scale(.7)" d="m-2-4 11 4-11 4c2-2.33 2-5.66 0-8z" fill="context-stroke" fill-rule="evenodd"/>
  </marker>
  <marker id="ConcaveTriangle-16-42-5-1-1-7-6-6-2-1-6-9-3-7-3-7-8-93-94-8-40-0-2-1-0-5-2-90" overflow="visible" markerHeight="0.60000002" markerWidth="0.60000002" orient="auto-start-reverse" preserveAspectRatio="xMidYMid" viewBox="0 0 1 1">
   <path transform="scale(.7)" d="m-2-4 11 4-11 4c2-2.33 2-5.66 0-8z" fill="context-stroke" fill-rule="evenodd"/>
  </marker>
  <marker id="ConcaveTriangle-16-42-5-1-1-7-6-6-2-1-6-9-3-7-3-7-8-93-94-8-40-3" overflow="visible" markerHeight="0.60000002" markerWidth="0.60000002" orient="auto-start-reverse" preserveAspectRatio="xMidYMid" viewBox="0 0 1 1">
   <path transform="scale(.7)" d="m-2-4 11 4-11 4c2-2.33 2-5.66 0-8z" fill="context-stroke" fill-rule="evenodd"/>
  </marker>
 </defs>
 <g transform="translate(-76.929 -17.401)">
  <path d="m84.148 26.492v-8.9924" fill="none" stroke="#000" stroke-linecap="round" stroke-linejoin="round" stroke-width=".19844"/>
  <path d="m84.148 26.492 8-4.5" fill="none" stroke="#000" stroke-linecap="round" stroke-linejoin="round" stroke-width=".19844"/>
  <path d="m92.148 21.992-8-4.4924" fill="none" stroke="#000" stroke-linecap="round" stroke-linejoin="round" stroke-width=".19844"/>
  <path d="m84.148 19.492h-1.3229" fill="none" stroke="#000" stroke-linecap="round" stroke-linejoin="round" stroke-width=".19844"/>
  <path d="m86.191 19.492h-1.3229" fill="none" stroke="#000" stroke-linecap="round" stroke-linejoin="round" stroke-width=".13229"/>
  <path d="m86.125 24.459h-1.3229" fill="none" stroke="#000" stroke-linecap="round" stroke-linejoin="round" stroke-width=".13229"/>
  <path d="m85.463 25.121v-1.3229" fill="none" stroke="#000" stroke-linecap="round" stroke-linejoin="round" stroke-width=".13229"/>
  <path d="m84.148 24.492h-1.3229" fill="none" stroke="#000" stroke-linecap="round" stroke-linejoin="round" stroke-width=".19844"/>
  <path d="m96.148 21.984h-4.0149" fill="none" stroke="#000" stroke-linecap="round" stroke-linejoin="round" stroke-width=".19844"/>
  <g transform="translate(27.489 65.629)" stroke-width=".19844">
   <title>Resistor_US</title>
   <path d="m86.651-33.629v-1" fill="none" stroke="#000" stroke-linecap="round" stroke-width=".19844"/>
   <path d="m86.026-34.879 0.625 0.25" fill="none" stroke="#000" stroke-linecap="round" stroke-width=".19844"/>
   <path d="m86.651-37.629 0.625 0.25" fill="none" stroke="#000" stroke-linecap="round" stroke-width=".19844"/>
   <path d="m86.026-35.879 1.25 0.5" fill="none" stroke="#000" stroke-linecap="round" stroke-width=".19844"/>
   <path d="m87.276-35.379-1.25 0.5" fill="none" stroke="#000" stroke-linecap="round" stroke-width=".19844"/>
   <path d="m86.026-36.879 1.25 0.5" fill="none" stroke="#000" stroke-linecap="round" stroke-width=".19844"/>
   <path d="m87.276-36.379-1.25 0.5" fill="none" stroke="#000" stroke-linecap="round" stroke-width=".19844"/>
   <path d="m87.276-37.379-1.25 0.5" fill="none" stroke="#000" stroke-linecap="round" stroke-width=".19844"/>
   <path d="m86.651-37.629v-1" fill="none" stroke="#000" stroke-linecap="round" stroke-width=".19844"/>
   <title>Resistor_US</title>
  </g>
  <g transform="rotate(-90 127.13 -15.499)" stroke="#afafaf" stroke-width=".19844">
   <title>Resistor_US</title>
   <path d="m86.651-33.629v-1" fill="none" stroke="#afafaf" stroke-linecap="round" stroke-width=".19844"/>
   <path d="m86.026-34.879 0.625 0.25" fill="none" stroke="#afafaf" stroke-linecap="round" stroke-width=".19844"/>
   <path d="m86.651-37.629 0.625 0.25" fill="none" stroke="#afafaf" stroke-linecap="round" stroke-width=".19844"/>
   <path d="m86.026-35.879 1.25 0.5" fill="none" stroke="#afafaf" stroke-linecap="round" stroke-width=".19844"/>
   <path d="m87.276-35.379-1.25 0.5" fill="none" stroke="#afafaf" stroke-linecap="round" stroke-width=".19844"/>
   <path d="m86.026-36.879 1.25 0.5" fill="none" stroke="#afafaf" stroke-linecap="round" stroke-width=".19844"/>
   <path d="m87.276-36.379-1.25 0.5" fill="none" stroke="#afafaf" stroke-linecap="round" stroke-width=".19844"/>
   <path d="m87.276-37.379-1.25 0.5" fill="none" stroke="#afafaf" stroke-linecap="round" stroke-width=".19844"/>
   <path d="m86.651-37.629v-1" fill="none" stroke="#afafaf" stroke-linecap="round" stroke-width=".19844"/>
   <title>Resistor_US</title>
  </g>
  <g transform="translate(66.148 -50.5)">
   <g transform="matrix(0 .83511 -.85711 0 51.549 43.532)" fill="none" stroke="#000" stroke-linecap="round" stroke-linejoin="round" stroke-width=".23455">
    <path d="m32.299 43.246v1.1341" style="paint-order:stroke fill markers"/>
    <path d="m32.299 44.38h-1.1974" style="paint-order:stroke fill markers"/>
    <path d="m31.102 44.38v-1.1459" style="paint-order:stroke fill markers"/>
    <path d="m31.102 43.234 0.59282-0.59282" style="paint-order:stroke fill markers"/>
    <path d="m32.299 43.246-0.60462-0.60462" style="paint-order:stroke fill markers"/>
   </g>
  </g>
  <g transform="translate(12.497 69.379)" stroke-width=".19844">
   <title>Resistor_US</title>
   <path d="m86.651-33.629v-1" fill="none" stroke="#000" stroke-linecap="round" stroke-width=".19844"/>
   <path d="m86.026-34.879 0.625 0.25" fill="none" stroke="#000" stroke-linecap="round" stroke-width=".19844"/>
   <path d="m86.651-37.629 0.625 0.25" fill="none" stroke="#000" stroke-linecap="round" stroke-width=".19844"/>
   <path d="m86.026-35.879 1.25 0.5" fill="none" stroke="#000" stroke-linecap="round" stroke-width=".19844"/>
   <path d="m87.276-35.379-1.25 0.5" fill="none" stroke="#000" stroke-linecap="round" stroke-width=".19844"/>
   <path d="m86.026-36.879 1.25 0.5" fill="none" stroke="#000" stroke-linecap="round" stroke-width=".19844"/>
   <path d="m87.276-36.379-1.25 0.5" fill="none" stroke="#000" stroke-linecap="round" stroke-width=".19844"/>
   <path d="m87.276-37.379-1.25 0.5" fill="none" stroke="#000" stroke-linecap="round" stroke-width=".19844"/>
   <path d="m86.651-37.629v-1" fill="none" stroke="#000" stroke-linecap="round" stroke-width=".19844"/>
   <title>Resistor_US</title>
  </g>
  <g transform="matrix(-.44713 0 0 .44713 128.29 -8.2549)" stroke-width=".4438">
   <title>GND</title>
   <g transform="translate(-.26259 -.11701)" stroke-width=".4438">
    <g transform="translate(33.547 3.5594)" fill="none" stroke="#000" stroke-linecap="round" stroke-width=".4438">
     <path d="m31.884 97.901v-0.91358" stroke-linejoin="round"/>
     <path d="m30.561 97.901h2.6458"/>
     <path d="m31.884 99.224 1.3229-1.3229"/>
     <path d="m30.561 97.901 1.3229 1.3229"/>
    </g>
   </g>
   <title>GND</title>
  </g>
  <g transform="translate(69.148 -21.5)" fill="#fff" stroke="#000" stroke-linecap="round" stroke-linejoin="round" stroke-width=".19844">
   <path d="m30 40-8e-3 -1" style="paint-order:markers stroke fill"/>
   <path d="m29 39h2.0133" style="paint-order:markers stroke fill"/>
  </g>
  <path d="m82.826 19.492h-1.6849" stroke="#000005" stroke-linecap="round" stroke-linejoin="round" stroke-width=".198"/>
  <text x="77.905632" y="19.706137" fill="#438cbc" font-family="Arial" font-size="1.4111px" font-weight="bold" stroke="#000005" stroke-linecap="round" stroke-linejoin="round" stroke-width=".198" text-align="center" text-anchor="middle" xml:space="preserve"><tspan x="77.905632" y="19.706137" fill="#438cbc" font-family="Inter" font-weight="normal" stroke="none" stroke-width=".198">V<tspan baseline-shift="sub" fill="#438cbc" font-family="Inter" font-size="65%" font-weight="normal">ref</tspan></tspan></text>
  <text x="97.148491" y="33.675953" fill="#000000" font-family="Arial" font-size="1.4111px" font-weight="bold" stroke="#000005" stroke-linecap="round" stroke-linejoin="round" stroke-width=".198" text-align="center" text-anchor="middle" xml:space="preserve"><tspan x="97.148491" y="33.675953" fill="#000000" font-family="Inter" font-weight="normal" stroke="none" stroke-width=".198">R<tspan baseline-shift="sub" font-family="Inter" font-size="65%" font-weight="normal">fb</tspan></tspan></text>
  <text x="106.38437" y="23.707029" fill="#000000" font-family="Arial" font-size="1.4111px" font-weight="bold" stroke="#000005" stroke-linecap="round" stroke-linejoin="round" stroke-width=".198" text-align="center" text-anchor="middle" xml:space="preserve"><tspan x="106.38437" y="23.707029" fill="#afafaf" font-family="Inter" font-weight="normal" stroke="none" stroke-width=".198">R<tspan baseline-shift="sub" fill="#afafaf" font-family="Inter" font-size="65%" font-weight="normal">trace</tspan></tspan></text>
  <path d="m99.148 18.5v1" fill="none" stroke="#000005" stroke-linecap="round" stroke-linejoin="round" stroke-width=".198"/>
  <g transform="translate(103.13 -45.026)">
   <g transform="matrix(0 .83511 -.85711 0 51.549 43.532)" fill="none" stroke="#000" stroke-linecap="round" stroke-linejoin="round" stroke-width=".23455">
    <path d="m32.299 43.246v1.1341" style="paint-order:stroke fill markers"/>
    <path d="m32.299 44.38h-1.1974" style="paint-order:stroke fill markers"/>
    <path d="m31.102 44.38v-1.1459" style="paint-order:stroke fill markers"/>
    <path d="m31.102 43.234 0.59282-0.59282" style="paint-order:stroke fill markers"/>
    <path d="m32.299 43.246-0.60462-0.60462" style="paint-order:stroke fill markers"/>
   </g>
  </g>
  <text x="117.7328" y="23.707029" fill="#438cbc" font-family="Arial" font-size="1.4111px" font-weight="bold" stroke="#000005" stroke-linecap="round" stroke-linejoin="round" stroke-width=".198" text-align="center" text-anchor="middle" xml:space="preserve"><tspan x="117.7328" y="23.707029" fill="#438cbc" font-family="Inter" font-weight="normal" stroke="none" stroke-width=".198">V<tspan baseline-shift="sub" fill="#438cbc" font-family="Inter" font-size="65%" font-weight="normal">out</tspan></tspan></text>
  <text x="91.640488" y="27.5" fill="#438cbc" font-family="Arial" font-size="1.4111px" font-weight="bold" stroke="#000005" stroke-linecap="round" stroke-linejoin="round" stroke-width=".198" text-align="center" text-anchor="middle" xml:space="preserve"><tspan x="91.640488" y="27.5" fill="#438cbc" font-family="Inter" font-weight="normal" stroke="none" stroke-width=".198">V<tspan baseline-shift="sub" font-size="65%">fb</tspan>=V<tspan baseline-shift="sub" font-size="65%">out</tspan></tspan></text>
  <path d="m99.148 35.75v0.8362" fill="none" stroke="#000005" stroke-linecap="round" stroke-linejoin="round" stroke-width=".198"/>
  <path d="m99.148 24.979h4.8515" fill="none" stroke="#000005" stroke-linecap="round" stroke-linejoin="round" stroke-width=".198"/>
  <circle cx="99.148" cy="24.979" r=".297" fill="#000005"/>
  <circle cx="99.148" cy="24.979" r=".297" fill="#000005"/>
  <g transform="matrix(-.44713 0 0 .44713 143.28 -12.005)" stroke-width=".4438">
   <title>GND</title>
   <g transform="translate(-.26259 -.11701)" stroke-width=".4438">
    <g transform="translate(33.547 3.5594)" fill="none" stroke="#000" stroke-linecap="round" stroke-width=".4438">
     <path d="m31.884 97.901v-0.91358" stroke-linejoin="round"/>
     <path d="m30.561 97.901h2.6458"/>
     <path d="m31.884 99.224 1.3229-1.3229"/>
     <path d="m30.561 97.901 1.3229 1.3229"/>
    </g>
   </g>
   <title>GND</title>
  </g>
  <path d="m114.14 32v0.8362" fill="none" stroke="#000005" stroke-linecap="round" stroke-linejoin="round" stroke-width=".198"/>
  <path d="m114.14 27v-2.0208" fill="none" stroke="#000005" stroke-linecap="round" stroke-linejoin="round" stroke-width=".198"/>
  <circle cx="114.14" cy="24.979" r=".297" fill="#000005"/>
  <circle cx="114.14" cy="24.979" r=".297" fill="#000005"/>
  <text x="115.97131" y="29.826445" fill="#000000" font-family="Arial" font-size="1.4111px" font-weight="bold" stroke="#000005" stroke-linecap="round" stroke-linejoin="round" stroke-width=".198" text-align="center" text-anchor="middle" xml:space="preserve"><tspan x="115.97131" y="29.826445" fill="#000000" font-family="Inter" font-weight="normal" stroke="none" stroke-width=".198">R<tspan baseline-shift="sub" font-family="Inter" font-size="65%" font-weight="normal">L</tspan></tspan></text>
  <path d="m109 24.979h7.6405" fill="none" stroke="#000" stroke-linecap="round" stroke-linejoin="round" stroke-width=".19844" style="paint-order:markers stroke fill"/>
  <path d="m110.14 25v3.5" fill="none" stroke="#4fbc43" stroke-linecap="round" stroke-linejoin="round" stroke-width=".19844" style="paint-order:markers stroke fill"/>
  <circle cx="110.14" cy="25" r=".29766" fill="#4fbc43"/>
  <circle cx="110.14" cy="25" r=".29766" fill="#4fbc43"/>
  <path d="m99.148 30.769v-7.6729" fill="none" stroke="#000" stroke-linecap="round" stroke-linejoin="round" stroke-width=".19844" style="paint-order:markers stroke fill"/>
  <path d="m110.14 28.5h-10.5" fill="none" stroke="#4fbc43" stroke-linecap="round" stroke-linejoin="round" stroke-width=".19844" style="paint-order:markers stroke fill"/>
  <path d="m98.64 28.5h-17v-4l1.1851-0.0076" fill="none" stroke="#4fbc43" stroke-linecap="round" stroke-linejoin="round" stroke-width=".19844" style="paint-order:markers stroke fill"/>
  <path d="m98.64 28.5c0-0.5 1-0.5 1 0" fill="none" stroke="#4fbc43" stroke-linecap="round" stroke-linejoin="round" stroke-width=".19844" style="paint-order:markers stroke fill"/>
  <text x="106.96182" y="31.026638" fill="#438cbc" font-family="Arial" font-size="1.4111px" font-weight="bold" stroke="#000005" stroke-linecap="round" stroke-linejoin="round" stroke-width=".198" text-align="center" text-anchor="middle" xml:space="preserve"><tspan x="106.96182" y="31.026638" fill="#438cbc" font-family="Inter" font-weight="normal" stroke="none" stroke-width=".198">I<tspan baseline-shift="sub" fill="#438cbc" font-size="65%">fb</tspan>=0</tspan></text>
  <text x="106.86282" y="27.717779" fill="#438cbc" font-family="Arial" font-size="1.4111px" font-weight="bold" stroke="#000005" stroke-linecap="round" stroke-linejoin="round" stroke-width=".198" text-align="center" text-anchor="middle" xml:space="preserve"><tspan x="106.86282" y="27.717779" fill="#438cbc" font-family="Inter" font-weight="normal" stroke="none" stroke-width=".198">I<tspan baseline-shift="sub" fill="#438cbc" font-size="65%">L</tspan></tspan></text>
  <text x="101.64049" y="24" fill="#438cbc" font-family="Arial" font-size="1.4111px" font-weight="bold" stroke="#000005" stroke-linecap="round" stroke-linejoin="round" stroke-width=".198" text-align="center" text-anchor="middle" xml:space="preserve"><tspan x="101.64049" y="24" fill="#438cbc" font-family="Inter" font-weight="normal" stroke="none" stroke-width=".198">V<tspan baseline-shift="sub" fill="#438cbc" font-family="Inter" font-size="65%" font-weight="normal">force</tspan></tspan></text>
  <path d="m104.64 22c1.3333-1.3333 2.1667-1.3333 3.5 0" fill="none" marker-end="url(#ConcaveTriangle-16-42-5-1-1-7-6-6-2-1-6-9-3-7-3-7-8-93-94-8-4-7-4)" marker-start="url(#ConcaveTriangle-16-42-5-1-1-7-6-6-2-1-6-9-3-7-3-7-8-93-94-8-40-0)" stroke="#c84b4b" stroke-linecap="round" stroke-linejoin="round" stroke-width=".198" style="paint-order:markers stroke fill"/>
  <path d="m105.14 26.333h2.5" fill="none" marker-end="url(#ConcaveTriangle-16-42-5-1-1-7-6-6-2-1-6-9-3-7-3-7-8-93-94-8-40-0-2-1-0-5-2-9)" stroke="#438cbc" stroke-linecap="round" stroke-linejoin="round" stroke-width=".198" style="paint-order:markers stroke fill"/>
  <path d="m108.39 29.333h-2.5" fill="none" marker-end="url(#ConcaveTriangle-16-42-5-1-1-7-6-6-2-1-6-9-3-7-3-7-8-93-94-8-40-0-2-1-0-5-2-90)" stroke="#438cbc" stroke-linecap="round" stroke-linejoin="round" stroke-width=".198" style="paint-order:markers stroke fill"/>
  <text x="104.00356" y="20.14793" fill="#000000" font-family="Inter" font-size="1.0583px" stroke="#000000" stroke-linecap="round" stroke-linejoin="round" stroke-width=".19791" style="paint-order:markers stroke fill" xml:space="preserve"><tspan x="104.00356" y="20.14793" fill="#c84b4b" stroke="none" stroke-width=".19791">V<tspan baseline-shift="sub" font-size="65%">drop1</tspan>=I<tspan baseline-shift="sub" font-size="65%">L</tspan>R<tspan baseline-shift="sub" font-size="65%">trace</tspan></tspan></text>
  <path d="m99.148 19.488v1.3604" fill="none" stroke="#000" stroke-linecap="round" stroke-width=".19844"/>
  <path d="m99.148 24.488v-1.4675" fill="none" stroke="#000" stroke-linecap="round" stroke-width=".19844"/>
  <path d="m97.628 20.375v3.2178" fill="none" stroke="#000" stroke-linecap="round" stroke-width=".19844"/>
  <path d="m97.143 23.593v-3.2178" fill="none" stroke="#000" stroke-linecap="round" stroke-width=".19844"/>
  <path d="m96.148 21.984 0.97902 1e-5" fill="none" stroke="#000" stroke-linecap="round" stroke-width=".19844"/>
  <path d="m99.148 23.021h-1.4978" fill="none" stroke="#000" stroke-linecap="round" stroke-width=".19844"/>
  <path d="m98.399 20.849h0.69408" fill="none" marker-start="url(#ConcaveTriangle-16-42-5-1-1-7-6-6-2-1-6-9-3-7-3-7-8-93-94-8-40-3)" stroke="#000" stroke-linecap="round" stroke-linejoin="round" stroke-width=".19844"/>
 </g>
</svg>
